<svg width="29.000000" height="29.500000" viewBox="0 0 29 29.5" fill="none" xmlns="http://www.w3.org/2000/svg" xmlns:xlink="http://www.w3.org/1999/xlink">
	<desc>
			Created with Pixso.
	</desc>
	<defs/>
	<circle id="Эллипс 26" cx="15.500000" cy="11.500000" r="2.812500" stroke="#222222" stroke-opacity="1.000000" stroke-width="3.000000"/>
	<path id="Эллипс 27" d="M4 11.5C4 5.14 9.14 0 15.5 0C21.85 0 27 5.14 27 11.5C27 17.1 23.08 21.76 17.72 26.73C17.52 26.91 17.33 27.09 17.13 27.28C16.6 27.76 16.05 28.25 15.5 28.75C9.03 21.56 4 17.85 4 11.5ZM15.67 24.51C21.22 19.21 24 14.87 24 11.5C24 10.32 23.79 9.23 23.37 8.23C22.96 7.23 22.34 6.31 21.51 5.48C20.68 4.65 19.76 4.03 18.76 3.62C17.76 3.2 16.67 3 15.5 3C14.32 3 13.23 3.2 12.23 3.62C11.23 4.03 10.31 4.65 9.48 5.48C8.65 6.31 8.03 7.23 7.62 8.23C7.2 9.23 7 10.32 7 11.5C7 14.09 9.33 17.84 14.01 22.76C14.61 23.39 15.17 23.98 15.67 24.51Z" fill="#222222" fill-opacity="1.000000" fill-rule="evenodd"/>
</svg>
