<svg width="29.000000" height="29.000000" viewBox="0 0 29 29" fill="none" xmlns="http://www.w3.org/2000/svg" xmlns:xlink="http://www.w3.org/1999/xlink">
	<desc>
			Created with Pixso.
	</desc>
	<defs/>
	<path id="Форма 100" d="M14.38 26.38C14.15 26.87 13.65 27.18 13.11 27.18C12.33 27.18 11.7 26.55 11.7 25.77L11.7 17.29C11.7 16.73 11.25 16.29 10.7 16.29L3.6 16.29C2.29 16.29 1.33 15.04 1.67 13.77L4.02 4.96C4.49 3.21 6.08 2 7.89 2L20.88 2L20.88 16.29C17.43 19.25 16.39 22.12 14.38 26.38Z" stroke="#222222" stroke-opacity="1.000000" stroke-width="3.000000"/>
	<path id="Форма 101" d="M20.88 16.29L26 16.29C26.55 16.29 27 15.84 27 15.29L27 3C27 2.44 26.55 2 26 2L20.88 2" stroke="#222222" stroke-opacity="1.000000" stroke-width="3.000000"/>
</svg>
