<svg width="29.506134" height="29.867554" viewBox="0 0 29.5061 29.8676" fill="none" xmlns="http://www.w3.org/2000/svg" xmlns:xlink="http://www.w3.org/1999/xlink">
	<desc>
			Created with Pixso.
	</desc>
	<defs/>
	<path id="Форма 84" d="M1.5 15.68L13.8 3.68C14.19 3.3 14.81 3.3 15.2 3.68L27.5 15.68" stroke="#222222" stroke-opacity="1.000000" stroke-width="3.000000" stroke-linecap="round"/>
	<path id="Форма 85" d="M4.5 13.41L4.4 27.36C4.4 27.91 4.84 28.36 5.4 28.36L10.61 28.36C11.16 28.36 11.61 27.91 11.61 27.36L11.61 18.09C11.61 17.54 12.06 17.09 12.61 17.09L17.11 17.09C17.66 17.09 18.11 17.54 18.11 18.09L18.11 27.36C18.11 27.91 18.56 28.36 19.11 28.36L23.61 28.36C24.16 28.36 24.61 27.91 24.61 27.36L24.61 13.41" stroke="#222222" stroke-opacity="1.000000" stroke-width="3.000000" stroke-linecap="round"/>
</svg>
