<svg width="29.000000" height="29.000000" viewBox="0 0 29 29" fill="none" xmlns="http://www.w3.org/2000/svg" xmlns:xlink="http://www.w3.org/1999/xlink">
	<desc>
			Created with Pixso.
	</desc>
	<defs/>
	<path id="Форма 130" d="M19.25 2C20.11 2 20.8 2.69 20.8 3.54L20.8 25.22C20.8 26.08 20.11 26.77 19.25 26.77L7.64 26.77C5.07 26.77 3 24.69 3 22.12L3 3.54C3 2.69 3.69 2 4.54 2L19.25 2Z" stroke="#222222" stroke-opacity="1.000000" stroke-width="3.130435"/>
	<path id="Форма 131" d="M21.58 5.09L23.9 5.09C25.61 5.09 27 6.48 27 8.19L27 22.12C27 23.83 25.61 25.22 23.9 25.22L21.58 25.22" stroke="#222222" stroke-opacity="1.000000" stroke-width="3.130435"/>
	<path id="Форма 132" d="M7.64 7.41L16.16 7.41" stroke="#222222" stroke-opacity="1.000000" stroke-width="3.130435" stroke-linecap="round"/>
	<path id="Форма 133" d="M7.64 12.83L16.16 12.83" stroke="#222222" stroke-opacity="1.000000" stroke-width="3.130435" stroke-linecap="round"/>
	<path id="Форма 134" d="M7.64 19.03L16.16 19.03" stroke="#222222" stroke-opacity="1.000000" stroke-width="3.130435" stroke-linecap="round"/>
</svg>
