<svg width="29.000000" height="29.000000" viewBox="0 0 29 29" fill="none" xmlns="http://www.w3.org/2000/svg" xmlns:xlink="http://www.w3.org/1999/xlink">
	<desc>
			Created with Pixso.
	</desc>
	<defs/>
	<rect id="Прямоугольник 1647" x="1.500000" y="6.342102" rx="1.000000" width="26.000000" height="21.157892" stroke="#222222" stroke-opacity="1.000000" stroke-width="3.000000"/>
	<path id="Форма 87" d="M1.7 14.07L28.14 14.07" stroke="#222222" stroke-opacity="1.000000" stroke-width="3.000000"/>
	<path id="Форма 88" d="M8.52 2L8.52 9.81" stroke="#222222" stroke-opacity="1.000000" stroke-width="3.000000" stroke-linecap="round"/>
	<path id="Форма 89" d="M20.47 2L20.47 9.81" stroke="#222222" stroke-opacity="1.000000" stroke-width="3.000000" stroke-linecap="round"/>
	<path id="31" d="M14.13 20.17Q13.74 19.73 12.98 19.61L14.27 18.14L14.27 17.28L10.27 17.28L10.27 18.34L12.71 18.34L11.53 19.67L11.53 20.54L12.13 20.54Q12.88 20.54 13.11 20.89Q13.2 21.04 13.2 21.25Q13.2 21.43 13.13 21.57Q13.05 21.7 12.92 21.79Q12.63 21.98 12.13 21.98Q11.91 21.98 11.7 21.95Q11.48 21.92 11.26 21.85Q10.83 21.71 10.5 21.47L9.99 22.48Q10.4 22.77 10.98 22.93Q11.26 23.01 11.55 23.05Q11.86 23.09 12.17 23.09Q12.94 23.09 13.48 22.84Q14.01 22.59 14.27 22.17Q14.4 21.96 14.46 21.75Q14.53 21.51 14.53 21.25Q14.53 20.82 14.36 20.49Q14.27 20.32 14.13 20.17ZM17.35 23L17.35 17.28L14.89 17.28L14.89 18.34L16.03 18.34L16.03 23L17.35 23Z" fill="#222222" fill-opacity="1.000000" fill-rule="evenodd"/>
</svg>
