<svg width="29.000000" height="29.000000" viewBox="0 0 29 29" fill="none" xmlns="http://www.w3.org/2000/svg" xmlns:xlink="http://www.w3.org/1999/xlink">
	<desc>
			Created with Pixso.
	</desc>
	<defs/>
	<path id="Форма 81" d="M24.48 24.5C25.38 24.5 25.86 23.35 25.31 22.63C19.18 14.59 26.04 5.81 13.74 3.49C1.83 6.77 8.91 14.4 3.36 22.74C2.88 23.45 3.36 24.5 4.22 24.5L24.48 24.5Z" stroke="#222222" stroke-opacity="1.000000" stroke-width="3.000000"/>
	<path id="Форма 82" d="M11.5 4.5L11.5 3C11.5 1.61 12.61 0.5 14 0.5C15.38 0.5 16.5 1.61 16.5 3L16.5 4.5L11.5 4.5Z" fill="#222222" fill-opacity="1.000000" fill-rule="evenodd"/>
	<path id="Форма 83" d="M10.5 24.5L18.5 24.5C18.5 26.7 16.7 28.5 14.5 28.5C12.29 28.5 10.5 26.7 10.5 24.5Z" fill="#222222" fill-opacity="1.000000" fill-rule="evenodd"/>
</svg>
