<svg width="29.000000" height="29.000000" viewBox="0 0 29 29" fill="none" xmlns="http://www.w3.org/2000/svg" xmlns:xlink="http://www.w3.org/1999/xlink">
	<desc>
			Created with Pixso.
	</desc>
	<defs/>
	<path id="Форма 100" d="M14.38 2.79C14.15 2.3 13.65 2 13.11 2C12.33 2 11.7 2.63 11.7 3.41L11.7 11.88C11.7 12.44 11.25 12.88 10.7 12.88L3.6 12.88C2.29 12.88 1.33 14.13 1.67 15.4L4.02 24.21C4.49 25.96 6.08 27.18 7.89 27.18L20.88 27.18L20.88 12.88C17.43 9.92 16.39 7.05 14.38 2.79Z" stroke="#222222" stroke-opacity="1.000000" stroke-width="3.000000"/>
	<path id="Форма 101" d="M20.88 12.88L26 12.88C26.55 12.88 27 13.33 27 13.88L27 26.18C27 26.73 26.55 27.18 26 27.18L20.88 27.18" stroke="#222222" stroke-opacity="1.000000" stroke-width="3.000000"/>
</svg>
