<svg width="30.000000" height="30.000000" viewBox="0 0 30 30" fill="none" xmlns="http://www.w3.org/2000/svg" xmlns:xlink="http://www.w3.org/1999/xlink">
	<desc>
			Created with Pixso.
	</desc>
	<defs/>
	<circle id="Эллипс 13" cx="15.000000" cy="15.000000" r="4.000000" stroke="#222222" stroke-opacity="1.000000" stroke-width="3.000000"/>
	<path id="Форма 45" d="M12.5 4.5L12.67 3.47C12.86 2.33 13.84 1.5 15 1.5C16.15 1.5 17.13 2.33 17.32 3.47L17.5 4.5L20.5 6L22.02 4.98C22.88 4.41 24.02 4.52 24.75 5.25C25.47 5.97 25.58 7.11 25.01 7.97L24 9.5L25.5 12.5L26.52 12.67C27.66 12.86 28.5 13.84 28.5 15C28.5 16.15 27.66 17.13 26.52 17.32L25.5 17.5L24.5 20.5L25.26 22.02C25.7 22.9 25.52 23.97 24.83 24.66C24.05 25.44 22.84 25.56 21.93 24.95L20.5 24L17.5 25.5L17.32 26.52C17.13 27.66 16.15 28.5 15 28.5C13.84 28.5 12.86 27.66 12.67 26.52L12.5 25.5L10 24.5L8.47 25.26C7.57 25.71 6.5 25.58 5.73 24.94C4.74 24.12 4.54 22.68 5.25 21.61L6 20.5L4.5 17.5L3.47 17.32C2.33 17.13 1.5 16.15 1.5 15C1.5 13.84 2.33 12.86 3.47 12.67L4.5 12.5L5.5 9.5L4.85 8.21C4.35 7.21 4.61 5.99 5.47 5.26C6.36 4.53 7.64 4.51 8.54 5.23L9.5 6L12.5 4.5Z" stroke="#222222" stroke-opacity="1.000000" stroke-width="3.000000"/>
</svg>
