<svg width="29.000000" height="29.000000" viewBox="0 0 29 29" fill="none" xmlns="http://www.w3.org/2000/svg" xmlns:xlink="http://www.w3.org/1999/xlink">
	<desc>
			Created with Pixso.
	</desc>
	<defs/>
	<mask id="mask_11_4725" fill="white">
		<path id="Слияние" d="M26.8349 7.17513C24.321 3.43259 19.4161 2.66545 15.8795 5.46169L14.5454 6.51649L13.039 5.25197C9.56448 2.33527 4.59781 2.95437 1.94562 6.63477C-0.706573 10.3152 -0.0399475 15.6632 3.43457 18.5799L13.7406 27.2313L14.0356 27.6704L14.1531 27.5775L14.3611 27.7522L14.9292 26.9639L24.9832 19.0146C28.5198 16.2184 29.3488 10.9177 26.8349 7.17513Z" clip-rule="evenodd" fill="" fill-opacity="1.000000" fill-rule="evenodd"/>
	</mask>
	<path id="Слияние" d="M16.396 25.8042L24.9832 19.0146C28.5198 16.2184 29.3488 10.9177 26.8349 7.17513C24.321 3.43259 19.4161 2.66545 15.8795 5.46169L14.5454 6.51649L13.039 5.25197C9.56448 2.33527 4.59781 2.95437 1.94562 6.63477C-0.706573 10.3152 -0.0399475 15.6632 3.43457 18.5799L12.0571 25.8181L13.5853 27.1009L13.7406 27.2313L13.8366 27.3742L14.0356 27.6704L14.1367 27.5905L14.1531 27.5775L14.1623 27.5853L14.3611 27.7522L14.7808 27.1699L14.9292 26.9639L15.2078 26.7436L16.396 25.8042ZM14.2098 23.7083L5.36343 16.2821C4.81131 15.8187 4.36295 15.2593 4.01831 14.6041C3.67813 13.9573 3.46188 13.2635 3.36954 12.5226C3.27719 11.7818 3.31653 11.0561 3.48749 10.3456C3.66071 9.62582 3.95804 8.97352 4.37949 8.38869C4.78732 7.82275 5.27435 7.37173 5.84061 7.0356C6.37436 6.71874 6.94583 6.52235 7.55502 6.44642C8.16418 6.37048 8.76639 6.42058 9.3616 6.59669C9.99304 6.78354 10.5759 7.1012 11.1102 7.5497L14.4886 10.3858L17.7401 7.81498C18.2815 7.38691 18.8664 7.09 19.4948 6.92425C20.0862 6.76829 20.6802 6.73698 21.2771 6.83034C21.874 6.92369 22.4302 7.1349 22.9456 7.46395C23.4934 7.81367 23.9597 8.27499 24.3446 8.84793C24.7431 9.44116 25.0167 10.0978 25.1656 10.818C25.3127 11.5296 25.3288 12.2523 25.2141 12.9862C25.0992 13.7201 24.8632 14.4034 24.5059 15.036C24.1443 15.6764 23.6831 16.2181 23.1226 16.6613L14.2098 23.7083L14.2098 23.7083Z" clip-rule="evenodd" fill="#222222" fill-opacity="1.000000" fill-rule="evenodd"/>
</svg>
