<svg width="29.010315" height="29.000000" viewBox="0 0 29.0103 29" fill="none" xmlns="http://www.w3.org/2000/svg" xmlns:xlink="http://www.w3.org/1999/xlink">
	<desc>
			Created with Pixso.
	</desc>
	<defs/>
	<path id="Звезда 3" d="M10.69 8.55C10.55 8.87 10.25 9.09 9.9 9.13L1.86 10.14C1.03 10.24 0.69 11.27 1.29 11.85L7.27 17.58C7.51 17.81 7.62 18.15 7.56 18.49L6 26.71C5.84 27.55 6.73 28.19 7.48 27.76L14.5 23.74C14.81 23.56 15.18 23.56 15.49 23.74L22.51 27.76C23.26 28.19 24.15 27.55 23.99 26.71L22.43 18.49C22.37 18.15 22.48 17.81 22.72 17.58L28.7 11.85C29.3 11.27 28.96 10.24 28.13 10.14L20.09 9.13C19.74 9.09 19.44 8.87 19.3 8.55L15.91 1.02C15.55 0.23 14.44 0.23 14.08 1.02L10.69 8.55ZM13.43 9.78C12.85 11.05 11.66 11.93 10.28 12.11L6.4 12.59L9.34 15.41C10.32 16.35 10.76 17.72 10.51 19.05L9.75 23L13 21.13C14.24 20.43 15.75 20.43 16.99 21.13L20.24 23L19.49 19.05C19.23 17.72 19.67 16.35 20.65 15.41L23.59 12.59L19.71 12.11C18.33 11.93 17.14 11.05 16.56 9.78L15 6.3L13.43 9.78Z" fill="#222222" fill-opacity="1.000000" fill-rule="evenodd"/>
</svg>
