<svg width="29.000000" height="29.241776" viewBox="0 0 29 29.2418" fill="none" xmlns="http://www.w3.org/2000/svg" xmlns:xlink="http://www.w3.org/1999/xlink">
	<desc>
			Created with Pixso.
	</desc>
	<defs/>
	<path id="Форма 110" d="M12.27 4.13L3 4.13C2.44 4.13 2 4.57 2 5.13L2 26.24C2 26.79 2.44 27.24 3 27.24L23.75 27.24C24.3 27.24 24.75 26.79 24.75 26.24L24.75 16.4" stroke="#222222" stroke-opacity="1.000000" stroke-width="3.000000" stroke-linecap="round"/>
	<path id="Форма 111" d="M7.1 15.32C7.12 15.09 7.22 14.87 7.39 14.71L20.38 1.93C20.77 1.54 21.39 1.54 21.78 1.93L26.96 7.02C27.36 7.42 27.36 8.06 26.96 8.45L13.99 21.21C13.83 21.37 13.62 21.47 13.39 21.49L7.62 22.06C6.99 22.12 6.46 21.59 6.52 20.97L7.1 15.32Z" stroke="#222222" stroke-opacity="1.000000" stroke-width="3.000000"/>
</svg>
