<svg width="29.000000" height="29.000000" viewBox="0 0 29 29" fill="none" xmlns="http://www.w3.org/2000/svg" xmlns:xlink="http://www.w3.org/1999/xlink">
	<desc>
			Created with Pixso.
	</desc>
	<defs/>
	<path id="Прямоугольник 1654" d="M24 22.33C24 22.22 24 22.11 24 22C24 20.82 25.1 21.01 26.27 21.21C27.59 21.44 29 21.69 29 20L29 5C29 3.89 28.1 3 27 3L2 3C0.89 3 0 3.89 0 5L0 19.18C0 20.28 0.89 21.18 2 21.18L14.27 21.18C14.42 21.18 14.56 21.21 14.7 21.27L21.2 24.33L23.36 25.35L25.19 26.21C25.27 26.3 25.34 26.39 25.42 26.47C26.12 27.24 26.31 26.73 25.37 26.29L25.19 26.21C24.81 25.72 24.49 25.09 24.27 24.3C24.12 23.73 24.02 23.08 24 22.33ZM21.09 20.96C21.21 20.31 21.46 19.76 21.84 19.32C22.37 18.71 23.15 18.31 24.18 18.13C24.64 18.05 25.25 18.06 26 18.14L26 6L3 6L3 18.18L14.27 18.18C14.57 18.18 14.86 18.21 15.14 18.27C15.43 18.34 15.7 18.43 15.97 18.56L21.09 20.96Z" fill="#222222" fill-opacity="1.000000" fill-rule="evenodd"/>
	<path id="ИИ" d="M10.32 14L10.32 9.67L11.37 9.67L11.37 12.16L11.4 12.16L13.11 9.67L14.01 9.67L14.01 14L12.96 14L12.96 11.5L12.93 11.5L11.21 14L10.32 14ZM14.66 14L14.66 9.67L15.71 9.67L15.71 12.16L15.74 12.16L17.45 9.67L18.35 9.67L18.35 14L17.3 14L17.3 11.5L17.27 11.5L15.55 14L14.66 14Z" fill="#222222" fill-opacity="1.000000" fill-rule="evenodd"/>
</svg>
